<svg width="70" height="65" viewBox="0 0 70 65" fill="none" xmlns="http://www.w3.org/2000/svg">
<path d="M17 9C17 9.98734 17.1588 10.9373 17.4523 11.8258L15.4779 12.752C13.841 11.0553 11.5438 10 9 10C4.02944 10 0 14.0294 0 19C0 23.4308 3.2018 27.1138 7.41791 27.8614L12.16 44.12C12.259 44.4594 12.4025 44.7842 12.5869 45.0858L15.32 49.5582L15.3032 49.5612C13.3925 49.8992 12 51.5597 12 53.5V61C12 63.2091 13.7909 65 16 65L54.0769 65C55.1378 65 56.1552 64.5786 56.9053 63.8284C57.6555 63.0783 58.0769 62.0609 58.0769 61V53.5C58.0769 51.5574 56.6813 49.8957 54.7679 49.5601L54.6875 49.546L57.4131 45.0858C57.5975 44.7842 57.741 44.4594 57.84 44.12L62.5821 27.8614C66.7982 27.1138 70 23.4308 70 19C70 14.0294 65.9706 10 61 10C58.453 10 56.1532 11.058 54.5159 12.7584L52.545 11.8339C52.8402 10.9431 53 9.99033 53 9C53 4.02944 48.9706 0 44 0C39.0294 0 35 4.02944 35 9C35 4.02944 30.9706 0 26 0C21.0294 0 17 4.02944 17 9Z" fill="#34364C"/>
<path d="M27.7948 13.6682C29.6696 12.947 31 11.1288 31 9C31 6.23858 28.7614 4 26 4C23.2386 4 21 6.23858 21 9C21 11.5519 22.9117 13.6572 25.3811 13.9621L23.1513 32L12.4022 22.6641C13.3851 21.751 14 20.4473 14 19C14 16.2386 11.7614 14 9 14C6.23858 14 4 16.2386 4 19C4 21.7614 6.23858 24 9 24C9.48611 24 9.95602 23.9306 10.4004 23.8013L16 43L21.7906 52.4756L16 53.5V61L54.0769 61V53.5L48.2119 52.4714L54 43L59.5996 23.8013C60.044 23.9306 60.5139 24 61 24C63.7614 24 66 21.7614 66 19C66 16.2386 63.7614 14 61 14C58.2386 14 56 16.2386 56 19C56 20.4473 56.6149 21.751 57.5978 22.6641L46.8487 32L44.6189 13.9621C47.0883 13.6572 49 11.5519 49 9C49 6.23858 46.7614 4 44 4C41.2386 4 39 6.23858 39 9C39 11.1288 40.3304 12.947 42.2052 13.6682L35 30L27.7948 13.6682Z" fill="#F4F7FA"/>
</svg>
