<svg width="64" height="66" viewBox="0 0 64 66" fill="none" xmlns="http://www.w3.org/2000/svg">
<path fill-rule="evenodd" clip-rule="evenodd" d="M25.0019 3.87506C25.0694 1.71562 26.8395 0 29 0H35C37.1605 0 38.9306 1.71562 38.998 3.87506L39.0332 5H41C43.2091 5 45 6.79086 45 9V11.4261C49.3602 10.4394 54.0663 11.0984 58.0607 14.4271C66.3589 21.3423 65.5954 35.8381 55.7472 43.7669C53.3706 45.6803 51.5035 47.2665 50.2178 48.901C49.9245 49.2739 49.6732 49.6347 49.4617 49.9878L53.5156 50.5361C55.4995 50.8044 56.9795 52.4981 56.9795 54.5V62C56.9795 64.2091 55.1886 66 52.9795 66H11.0205C8.8114 66 7.02054 64.2091 7.02054 62V54.5C7.02054 52.4981 8.50054 50.8044 10.4844 50.5361L14.5383 49.9878C14.3268 49.6347 14.0755 49.2739 13.7822 48.901C12.4965 47.2665 10.6294 45.6803 8.25282 43.7669C-1.59538 35.8381 -2.35891 21.3423 5.93926 14.4271C9.93366 11.0984 14.6398 10.4394 19 11.4261V9C19 6.79086 20.7909 5 23 5H24.9668L25.0019 3.87506Z" fill="#34364C"/>
<path fill-rule="evenodd" clip-rule="evenodd" d="M29 4H35L35.1562 9H41V15H35.3438L35.6185 21.793C35.7282 21.6638 35.8411 21.5372 35.9574 21.4135C41.4206 15.6071 49.5207 12.5172 55.5 17.5C61.5 22.5 61.5 34 53.2387 40.6512C48.559 44.4188 44.3673 48.0509 44.5739 53.3632L52.9795 54.5V62H11.0205V54.5L19.4261 53.3632C19.6327 48.0509 15.441 44.4188 10.7613 40.6512C2.5 34 2.5 22.5 8.5 17.5C14.4793 12.5172 22.5794 15.6071 28.0426 21.4135C28.1589 21.5372 28.2718 21.6638 28.3815 21.793L28.6562 15H23V9H28.8437L29 4ZM23.348 26.9731C27.0147 32.9791 27.5 40 27.5 43.0532C25.6621 43.0565 18.7338 40.0085 15.0656 35.0046C12.4248 31.4022 11.7362 26.0575 14 23.9825C16.2638 21.9075 21.0563 23.2194 23.348 26.9731ZM40.652 26.9731C36.9853 32.9791 36.5 40 36.5 43.0532C38.3379 43.0565 45.2662 40.0085 48.9344 35.0046C51.5752 31.4022 52.2638 26.0575 50 23.9825C47.7362 21.9075 42.9436 23.2194 40.652 26.9731Z" fill="#F4F7FA"/>
</svg>
