<svg width="47" height="63" viewBox="0 0 47 63" fill="none" xmlns="http://www.w3.org/2000/svg">
<path d="M13.314 13.8839C12.9121 12.7797 12.6923 11.5878 12.6923 10.3462C12.6923 4.63212 17.3244 0 23.0385 0C28.7525 0 33.3846 4.63212 33.3846 10.3462C33.3846 12.0199 32.9846 13.6065 32.2755 15.0095C33.2959 15.0801 34.2874 15.5398 35.0103 16.366C38.9379 20.8547 42.375 27.2548 42.375 34.6731C42.375 39.9766 40.5491 43.9066 38.0819 46.7383L42.7679 47.5601C44.6813 47.8957 46.0769 49.5574 46.0769 51.5V59C46.0769 60.0609 45.6555 61.0783 44.9053 61.8284C44.1552 62.5786 43.1378 63 42.0769 63L4 63C1.79086 63 0 61.2091 0 59V51.5C0 49.5597 1.39253 47.8992 3.30319 47.5612L7.53026 46.8134C5.02938 43.9764 3.17308 40.0244 3.17308 34.6731C3.17308 28.8853 5.41599 23.8449 8.04662 19.9821C9.70012 17.5541 11.5721 15.4927 13.314 13.8839Z" fill="#34364C"/>
<path d="M25 34.1442H21C21 26.7994 23.2277 19.4669 28.1561 14.0997C28.9284 13.0485 29.3846 11.7506 29.3846 10.3462C29.3846 6.84126 26.5434 4 23.0385 4C19.5336 4 16.6923 6.84126 16.6923 10.3462C16.6923 12.0754 17.384 13.6431 18.5056 14.7877C14.5414 17.6138 7.17308 25.1889 7.17308 34.6731C7.17308 44.2443 14.6772 48.1192 18.6139 48.9147L4 51.5V59L42.0769 59V51.5L27.1165 48.8762C31.0977 47.9999 38.375 44.0985 38.375 34.6731C38.375 28.5015 35.5 23 32 19C28.1561 22 25 29 25 34.1442Z" fill="#F4F7FA"/>
</svg>
