<svg width="60" height="66" viewBox="0 0 60 66" fill="none" xmlns="http://www.w3.org/2000/svg">
<path d="M26.6899 0.506964C28.0065 0.358909 29.3111 0.872458 30.1735 1.87833L38.3344 11.3968C47.7064 13.7128 53.1365 20.7698 56.1398 29.5796C59.2345 38.6575 60 50.182 60 62C60 64.2091 58.2091 66 56 66H18.7049C16.5814 66 14.8279 64.3406 14.711 62.2202C14.6066 60.3281 15.042 57.0449 16.3686 53.6914L16.393 53.63C12.6257 55.6522 8.44483 55.1678 5.34113 52.958C1.56927 50.2725 -0.527978 45.0154 1.86816 39.8238C3.59604 36.08 5.45832 34.0976 6.86712 32.5982C8.18307 31.1977 8.73147 30.5817 9.11943 29.0299C11.4717 19.6209 16.3109 14.2007 21.5079 11.7271C21.4327 10.6552 21.4938 9.62248 21.6253 8.68489C21.9526 6.35108 22.7673 4.19438 23.5978 2.61775C24.2153 1.44546 25.3732 0.655018 26.6899 0.506964Z" fill="#34364C"/>
<path fill-rule="evenodd" clip-rule="evenodd" d="M36.1707 15.0185L27.1368 4.4819C25.8291 6.9645 24.5614 11.3461 26.3841 14.5092C25.4994 14.5879 24.6539 14.7376 24 15C19.8279 16.6743 15.25 21 13 30C12.3485 32.606 11.1759 33.854 9.7822 35.3373C8.46756 36.7364 6.95622 38.3448 5.5 41.5C2.5 48 10.5963 54.5 16.5 48.5963C19.8191 45.2772 22.7204 43.907 25.1562 42.7566C28.662 41.1008 31.2037 39.9004 32.6393 34C33.3224 36.7523 33.0492 43.2477 26.4918 47.211C19.9344 51.1743 18.5683 59.5229 18.7049 62H56C56 38.4832 52.8865 18.1648 36.1707 15.0185Z" fill="#F4F7FA"/>
<path d="M28 27C28 28.6569 26.6569 30 25 30C23.3431 30 22 28.6569 22 27C22 25.3431 23.3431 24 25 24C26.6569 24 28 25.3431 28 27Z" fill="#34364C"/>
</svg>
