<svg width="47" height="61" viewBox="0 0 47 61" fill="none" xmlns="http://www.w3.org/2000/svg">
<path d="M14 0C14.7286 0 15.4117 0.194789 16 0.53513C16.5883 0.194789 17.2714 0 18 0H29C29.7286 0 30.4117 0.194789 31 0.53513C31.5884 0.194789 32.2714 0 33 0H43C45.2091 0 47 1.79086 47 4V13C47 14.259 46.4072 15.4446 45.4 16.2L39.2279 20.8291L40.9755 36.5583C41.4382 40.7226 43.3765 42.8353 46.2 46.6C46.7193 47.2924 47 48.1345 47 49V57C47 59.2091 45.2091 61 43 61H4C1.79086 61 0 59.2091 0 57V49C0 48.1345 0.280711 47.2924 0.8 46.6C3.62351 42.8353 5.56177 40.7226 6.02447 36.5583L7.77215 20.8291L1.6 16.2C0.592777 15.4446 0 14.259 0 13V4C0 1.79086 1.79086 0 4 0H14Z" fill="#34364C"/>
<path d="M4 4H14V10H18V4H29V10H33V4H43V13L35 19L37 37H10L12 19L4 13V4Z" fill="#F4F7FA"/>
<path d="M10 41H37L43 49V57H4V49L10 41Z" fill="#F4F7FA"/>
</svg>
